<svg width="1440" height="741" viewBox="0 0 1440 741" fill="none" xmlns="http://www.w3.org/2000/svg">
<path opacity="0.49" d="M1534.69 -106L1441 -51.5532L1535.31 2.89356L1629 -51.5532L1534.69 -106Z" stroke="white" stroke-width="3"/>
<path opacity="0.49" d="M1254.69 58L1161 112.447L1255.31 166.894L1349 112.447L1254.69 58Z" stroke="white" stroke-width="3"/>
<path opacity="0.26" d="M1255.58 276.152L1161.87 222.044V112.642L1255.58 166.75V276.152Z" stroke="white" stroke-width="3"/>
<path opacity="0.45" d="M1255.18 276.031L1348.9 221.923V112.521L1255.18 166.629V276.031Z" stroke="white" stroke-width="3"/>
<path opacity="0.49" d="M1443.69 386L1350 440.447L1444.31 494.894L1538 440.447L1443.69 386Z" stroke="white" stroke-width="3"/>
<path opacity="0.26" d="M1444.58 604.152L1350.87 550.044V440.642L1444.58 494.75V604.152Z" stroke="white" stroke-width="3"/>
<path opacity="0.49" d="M1348.69 222.056L1255 276.503L1349.31 330.95L1443 276.503L1348.69 222.056Z" stroke="white" stroke-width="3"/>
<path opacity="0.26" d="M1349.58 440.208L1255.87 386.1V276.698L1349.58 330.806V440.208Z" stroke="white" stroke-width="3"/>
<path opacity="0.45" d="M1349.18 440.086L1442.9 385.979V276.577L1349.18 330.685V440.086Z" stroke="white" stroke-width="3"/>
<path opacity="0.49" d="M1441.69 58.0562L1348 112.503L1442.31 166.95L1536 112.503L1441.69 58.0562Z" stroke="white" stroke-width="3"/>
<path opacity="0.26" d="M1442.58 276.208L1348.87 222.1V112.698L1442.58 166.806V276.208Z" stroke="white" stroke-width="3"/>
<path opacity="0.49" d="M-3.30635 58L-97 112.447L-2.69365 166.894L91 112.447L-3.30635 58Z" stroke="white" stroke-width="3"/>
<path opacity="0.45" d="M-2.81543 276.031L90.9 221.923V112.521L-2.81543 166.629V276.031Z" stroke="white" stroke-width="3"/>
<path opacity="0.49" d="M90.6936 222.056L-3 276.503L91.3064 330.95L185 276.503L90.6936 222.056Z" stroke="white" stroke-width="3"/>
<path opacity="0.26" d="M91.5845 440.208L-2.13086 386.1V276.698L91.5845 330.806V440.208Z" stroke="white" stroke-width="3"/>
<path opacity="0.45" d="M91.1846 440.086L184.9 385.979V276.577L91.1846 330.685V440.086Z" stroke="white" stroke-width="3"/>
<path opacity="0.49" d="M183.694 58.0562L90 112.503L184.306 166.95L278 112.503L183.694 58.0562Z" stroke="white" stroke-width="3"/>
<path opacity="0.26" d="M184.585 276.208L90.8691 222.1V112.698L184.585 166.806V276.208Z" stroke="white" stroke-width="3"/>
<path opacity="0.45" d="M184.185 276.087L277.9 221.979V112.577L184.185 166.685V276.087Z" stroke="white" stroke-width="3"/>
<path opacity="0.49" d="M-96.3064 222.056L-190 276.503L-95.6936 330.95L-2 276.503L-96.3064 222.056Z" stroke="white" stroke-width="3"/>
<path opacity="0.49" d="M-1.30635 386.056L-95 440.503L-0.693646 494.95L93 440.503L-1.30635 386.056Z" stroke="white" stroke-width="3"/>
<path opacity="0.26" d="M-0.415468 604.208L-94.1309 550.1V440.698L-0.415468 494.806V604.208Z" stroke="white" stroke-width="3"/>
<path opacity="0.45" d="M-0.81543 604.086L92.9 549.979V440.577L-0.81543 494.685V604.086Z" stroke="white" stroke-width="3"/>
</svg>
