<svg width="1440" height="840" viewBox="0 0 1440 840" fill="none" xmlns="http://www.w3.org/2000/svg">
<path opacity="0.49" d="M1181.69 -73L1088 -18.5532L1182.31 35.8936L1276 -18.5532L1181.69 -73Z" stroke="white" stroke-width="3"/>
<path opacity="0.26" d="M1182.58 145.152L1088.87 91.0443V-18.3577L1182.58 35.7502V145.152Z" stroke="white" stroke-width="3"/>
<path opacity="0.45" d="M1182.18 145.03L1275.9 90.9226V-18.4794L1182.18 35.6285V145.03Z" stroke="white" stroke-width="3"/>
<path opacity="0.49" d="M1370.69 255L1277 309.447L1371.31 363.894L1465 309.447L1370.69 255Z" stroke="white" stroke-width="3"/>
<path opacity="0.26" d="M1371.58 473.152L1277.87 419.044V309.642L1371.58 363.75V473.152Z" stroke="white" stroke-width="3"/>
<path opacity="0.45" d="M1371.18 473.031L1464.9 418.923V309.521L1371.18 363.629V473.031Z" stroke="white" stroke-width="3"/>
<path opacity="0.49" d="M1275.69 91.0562L1182 145.503L1276.31 199.95L1370 145.503L1275.69 91.0562Z" stroke="white" stroke-width="3"/>
<path opacity="0.26" d="M1276.58 309.208L1182.87 255.1V145.698L1276.58 199.806V309.208Z" stroke="white" stroke-width="3"/>
<path opacity="0.45" d="M1276.18 309.087L1369.9 254.979V145.577L1276.18 199.685V309.087Z" stroke="white" stroke-width="3"/>
<path opacity="0.49" d="M1464.69 419.056L1371 473.503L1465.31 527.95L1559 473.503L1464.69 419.056Z" stroke="white" stroke-width="3"/>
<path opacity="0.26" d="M1465.58 637.208L1371.87 583.1V473.698L1465.58 527.806V637.208Z" stroke="white" stroke-width="3"/>
<path opacity="0.49" d="M1368.69 -72.944L1275 -18.4972L1369.31 35.9496L1463 -18.4972L1368.69 -72.944Z" stroke="white" stroke-width="3"/>
<path opacity="0.26" d="M1369.58 145.208L1275.87 91.1003V-18.3016L1369.58 35.8062V145.208Z" stroke="white" stroke-width="3"/>
<path opacity="0.45" d="M1369.18 145.086L1462.9 90.9786V-18.4233L1369.18 35.6845V145.086Z" stroke="white" stroke-width="3"/>
<path opacity="0.49" d="M1463.69 91.0562L1370 145.503L1464.31 199.95L1558 145.503L1463.69 91.0562Z" stroke="white" stroke-width="3"/>
<path opacity="0.26" d="M1464.58 309.208L1370.87 255.1V145.698L1464.58 199.806V309.208Z" stroke="white" stroke-width="3"/>
<path opacity="0.49" d="M-6.30635 528L-100 582.447L-5.69365 636.894L88 582.447L-6.30635 528Z" stroke="white" stroke-width="3"/>
<path opacity="0.45" d="M-5.81543 746.031L87.9 691.923V582.521L-5.81543 636.629V746.031Z" stroke="white" stroke-width="3"/>
<path opacity="0.49" d="M87.6936 692.056L-6 746.503L88.3064 800.95L182 746.503L87.6936 692.056Z" stroke="white" stroke-width="3"/>
<path opacity="0.26" d="M88.5845 910.208L-5.13086 856.1V746.698L88.5845 800.806V910.208Z" stroke="white" stroke-width="3"/>
<path opacity="0.45" d="M88.1846 910.087L181.9 855.979V746.577L88.1846 800.685V910.087Z" stroke="white" stroke-width="3"/>
<path opacity="0.49" d="M-8.30635 200.056L-102 254.503L-7.69365 308.95L86 254.503L-8.30635 200.056Z" stroke="white" stroke-width="3"/>
<path opacity="0.45" d="M-7.81543 418.087L85.9 363.979V254.577L-7.81543 308.685V418.087Z" stroke="white" stroke-width="3"/>
<path opacity="0.49" d="M180.694 528.056L87 582.503L181.306 636.95L275 582.503L180.694 528.056Z" stroke="white" stroke-width="3"/>
<path opacity="0.26" d="M181.585 746.208L87.8691 692.1V582.698L181.585 636.806V746.208Z" stroke="white" stroke-width="3"/>
<path opacity="0.45" d="M181.185 746.087L274.9 691.979V582.577L181.185 636.685V746.087Z" stroke="white" stroke-width="3"/>
<path opacity="0.49" d="M86.6936 364.056L-7 418.503L87.3064 472.95L181 418.503L86.6936 364.056Z" stroke="white" stroke-width="3"/>
<path opacity="0.26" d="M87.5845 582.208L-6.13086 528.1V418.698L87.5845 472.806V582.208Z" stroke="white" stroke-width="3"/>
<path opacity="0.45" d="M87.1846 582.087L180.9 527.979V418.577L87.1846 472.685V582.087Z" stroke="white" stroke-width="3"/>
<path opacity="0.49" d="M275.694 692.056L182 746.503L276.306 800.95L370 746.503L275.694 692.056Z" stroke="white" stroke-width="3"/>
<path opacity="0.26" d="M276.585 910.208L182.869 856.1V746.698L276.585 800.806V910.208Z" stroke="white" stroke-width="3"/>
<path opacity="0.45" d="M276.185 910.087L369.9 855.979V746.577L276.185 800.685V910.087Z" stroke="white" stroke-width="3"/>
</svg>
