<svg width="1000" height="190" viewBox="0 0 1000 190" fill="none" xmlns="http://www.w3.org/2000/svg">
<g clip-path="url(#clip0_1_5)">
<path d="M918.945 58.8809H876.208L893.02 82.9919H914.683L896.464 186.713H934.417L952.661 82.9919H1000L925.267 22.8689L918.945 58.8809Z" fill="white"/>
<path d="M177.143 0H4.709L0 27.159H66.949L38.9 186.72H76.854L104.909 27.159H172.434L177.143 0Z" fill="white"/>
<path d="M205.211 56.0039C156.968 56.0039 126.085 86.3689 119.955 121.646C113.159 160.815 137.226 189.487 185.915 189.487C207.669 189.487 228.021 185.395 244.558 176.205L249.693 146.99C233.54 158.563 212.982 165.03 195.567 165.03C171.295 165.03 151.999 154.925 155.034 131.744H255.329C256.537 128.991 257.985 124.172 259.029 118.16C263.889 90.1719 253.969 56.0039 205.211 56.0039ZM224.885 109.208H158.877C162.845 96.1329 175.668 78.0559 199.013 78.0559C224.417 78.0559 227.102 97.3689 224.885 109.208Z" fill="white"/>
<path d="M372.833 56.011C349.144 56.011 331.399 65.83 323.032 75.756H322.147L288.738 56.011C287.509 67.09 285.869 82.134 283.301 96.9L267.698 186.713H305.651L318.851 111.499C319.483 107.807 320.739 103.894 322.372 101.237C328.042 91.369 339.938 82.281 355.019 82.281C375.729 82.281 381.365 96.254 378.186 114.589L365.494 186.713H403.454L416.819 110.786C423.836 70.364 398.98 56.011 372.833 56.011Z" fill="white"/>
<path d="M828.128 56.011C804.426 56.011 786.703 65.83 778.334 75.756H777.45L744.04 56.011C742.811 67.09 741.163 82.134 738.596 96.9L723.008 186.713H760.947L774.154 111.499C774.779 107.807 776.036 103.894 777.662 101.237C783.338 91.369 795.233 82.281 810.303 82.281C831.038 82.281 836.668 96.254 833.491 114.589L820.805 186.713H858.758L872.103 110.786C879.123 70.364 854.274 56.011 828.128 56.011Z" fill="white"/>
<path d="M660.507 56.0039C612.264 56.0039 581.389 86.3689 575.258 121.646C568.462 160.815 592.529 189.487 641.211 189.487C662.964 189.487 683.324 185.395 699.854 176.205L704.996 146.99C688.845 158.563 668.292 165.03 650.856 165.03C626.597 165.03 607.323 154.925 610.335 131.744H710.644C711.832 128.991 713.287 124.172 714.35 118.16C719.183 90.1719 709.258 56.0039 660.507 56.0039ZM680.18 109.208H614.18C618.14 96.1329 630.963 78.0559 654.301 78.0559C679.72 78.0559 682.404 97.3689 680.18 109.208Z" fill="white"/>
<path d="M432.746 121.082C425.861 160.76 453.642 189.473 500.662 189.473C519.361 189.473 541.683 184.097 550.141 180.961L556.278 146.796C543.092 160.979 525.216 163.924 512.531 163.924C486.701 163.924 467.144 148.884 471.695 122.675C475.642 99.2401 497.835 81.2301 526.768 81.2301C538.547 81.2301 554.535 85.1751 564.612 98.4371L570.495 63.6851C562.333 60.5521 549.27 56.0801 529.932 56.0801C477.172 56.0791 439.398 82.8131 432.746 121.082Z" fill="white"/>
</g>
<defs>
<clipPath id="clip0_1_5">
<rect width="1000" height="189.486" fill="white"/>
</clipPath>
</defs>
</svg>
